<?xml version="1.0" encoding="utf-8"?>
<!-- Generator: Adobe Illustrator 26.3.1, SVG Export Plug-In . SVG Version: 6.00 Build 0)  -->
<svg version="1.1" id="Layer_1" xmlns="http://www.w3.org/2000/svg" xmlns:xlink="http://www.w3.org/1999/xlink" x="0px" y="0px"
	 viewBox="0 0 300 256" style="enable-background:new 0 0 300 256;" xml:space="preserve">
<style type="text/css">
	.st0{fill:#6E3CBE;}
	.st1{fill:#707070;}
	.st2{enable-background:new    ;}
	.st3{fill:#FFFFFF;}
</style>
<g id="グループ_1" transform="translate(-186 -167)">
	<rect id="長方形_1" x="186" y="167" class="st0" width="300" height="256"/>
	<path id="長方形_1_-_アウトライン" class="st1" d="M187,168v254h298V168H187 M186,167h300v256H186V167z"/>
	<g class="st2">
		<path class="st3" d="M293.4,323l-5.8-6.5v6.5h-2.4v-13.3h2.4v5.9l5-5.9h3.3l-5.6,6.2l6.6,7.1H293.4z"/>
		<path class="st3" d="M304.8,314.2l-5.6,12.6h-2.4l2.1-4.6l-3.8-8h2.7l2.2,5.3l2.3-5.3H304.8z"/>
		<path class="st3" d="M314.1,318.6c0,2.8-2.1,4.7-4.9,4.7c-2.8,0-4.9-1.9-4.9-4.7c0-2.8,2.1-4.7,4.9-4.7
			C312,313.9,314.1,315.9,314.1,318.6z M306.7,318.6c0,1.5,1,2.5,2.5,2.5s2.5-1,2.5-2.5c0-1.5-1-2.5-2.5-2.5
			S306.7,317.1,306.7,318.6z"/>
		<path class="st3" d="M314.5,318.6c0-2.8,2-4.7,4.8-4.7c1.2,0,2.2,0.3,3.1,0.9l-1,1.9c-0.6-0.4-1.2-0.6-2-0.6c-1.4,0-2.5,1-2.5,2.5
			c0,1.5,1,2.5,2.5,2.5c0.8,0,1.5-0.2,2-0.6l1,1.9c-0.9,0.6-1.9,0.9-3.1,0.9C316.5,323.3,314.5,321.4,314.5,318.6z"/>
		<path class="st3" d="M330.9,318.6v0.5h-6.6c0.1,1.3,1.1,2.1,2.5,2.1c1.3,0,2.1-0.7,2.6-1.2l1.2,1.7c-0.8,0.7-2,1.6-3.8,1.6
			c-2.9,0-4.7-1.9-4.7-4.7c0-2.8,1.8-4.7,4.6-4.7C329.3,313.9,330.9,315.6,330.9,318.6z M324.4,317.6h4.1c-0.1-1.1-0.9-1.8-2-1.8
			C325.4,315.8,324.6,316.4,324.4,317.6z"/>
		<path class="st3" d="M337.2,316.5h-0.3c-1.9,0-2.8,0.8-2.8,2.9v3.6h-2.3v-8.8h2.3v1.9h0c0.5-1.4,1.5-2.1,2.9-2.1h0.1V316.5z"/>
		<path class="st3" d="M336.9,318.6c0-3,1.9-4.7,4.2-4.7c1.4,0,2.4,0.6,2.9,1.5h0v-1.2h2.3v8.8h-2.3v-1.2h0
			c-0.6,0.9-1.5,1.5-2.9,1.5C338.8,323.3,336.9,321.6,336.9,318.6z M344.1,318.6c0-1.5-1-2.5-2.4-2.5c-1.4,0-2.4,1-2.4,2.5
			c0,1.5,1,2.5,2.4,2.5C343.1,321.1,344.1,320.1,344.1,318.6z"/>
		<path class="st3" d="M360.8,320.7v2.3h-8v-13.3h7.9v2.3h-5.5v2.7h5v2.2h-5v3.8H360.8z"/>
		<path class="st3" d="M370.5,317.6v5.4h-2.3v-4.9c0-1.4-0.7-2-1.8-2c-1.2,0-2.1,0.7-2.1,2.6v4.3H362v-8.8h2.3v1.3h0
			c0.6-1,1.6-1.6,2.9-1.6C369.1,313.9,370.5,315,370.5,317.6z"/>
		<path class="st3" d="M374.6,316.2v3.7c0,0.7,0.2,1,0.9,1h0.4v2.2h-1c-1.7,0-2.6-0.8-2.6-2.6v-4.2h-1.6v-2h1.6v-3.5h2.3v3.5h1.8v2
			H374.6z"/>
		<path class="st3" d="M385.2,318.6v0.5h-6.6c0.1,1.3,1.1,2.1,2.5,2.1c1.3,0,2.1-0.7,2.6-1.2l1.2,1.7c-0.8,0.7-2,1.6-3.8,1.6
			c-2.9,0-4.7-1.9-4.7-4.7c0-2.8,1.8-4.7,4.6-4.7C383.6,313.9,385.2,315.6,385.2,318.6z M378.7,317.6h4.1c-0.1-1.1-0.9-1.8-2-1.8
			C379.7,315.8,378.9,316.4,378.7,317.6z"/>
		<path class="st3" d="M391.5,316.5h-0.3c-1.9,0-2.8,0.8-2.8,2.9v3.6h-2.3v-8.8h2.3v1.9h0c0.5-1.4,1.5-2.1,2.9-2.1h0.1V316.5z"/>
		<path class="st3" d="M392.1,314.2h2.3v1.2h0c0.6-0.9,1.5-1.5,2.9-1.5c2.3,0,4.2,1.7,4.2,4.7c0,3-1.9,4.7-4.2,4.7
			c-1.4,0-2.4-0.6-2.9-1.5h0v5h-2.3V314.2z M399.2,318.6c0-1.5-1-2.5-2.4-2.5s-2.4,1-2.4,2.5c0,1.5,1,2.5,2.4,2.5
			S399.2,320.1,399.2,318.6z"/>
		<path class="st3" d="M408,316.5h-0.3c-1.9,0-2.8,0.8-2.8,2.9v3.6h-2.3v-8.8h2.3v1.9h0c0.5-1.4,1.5-2.1,2.9-2.1h0.1V316.5z"/>
		<path class="st3" d="M411.2,312.4h-2.7v-2.6h2.7V312.4z M408.7,314.2h2.3v8.8h-2.3V314.2z"/>
		<path class="st3" d="M411.5,322.4l0.9-2c0.9,0.5,1.9,0.9,2.9,0.9c0.7,0,1.1-0.2,1.1-0.6c0-0.3-0.2-0.5-0.8-0.8l-1.6-0.7
			c-1.4-0.6-2-1.5-2-2.6c0-1.7,1.2-2.7,3.4-2.7c1,0,2.1,0.2,3.1,0.6l-0.8,2c-0.8-0.3-1.7-0.6-2.5-0.6c-0.7,0-0.9,0.2-0.9,0.5
			c0,0.3,0.2,0.5,0.8,0.8l1.6,0.7c1.2,0.5,1.9,1.3,1.9,2.6c0,1.9-1.4,2.8-3.6,2.8C414,323.3,412.6,323,411.5,322.4z"/>
		<path class="st3" d="M427.9,318.6v0.5h-6.6c0.1,1.3,1.1,2.1,2.5,2.1c1.3,0,2.1-0.7,2.6-1.2l1.2,1.7c-0.8,0.7-2,1.6-3.8,1.6
			c-2.9,0-4.7-1.9-4.7-4.7c0-2.8,1.8-4.7,4.6-4.7C426.3,313.9,427.9,315.6,427.9,318.6z M421.4,317.6h4.1c-0.1-1.1-0.9-1.8-2-1.8
			C422.5,315.8,421.6,316.4,421.4,317.6z"/>
	</g>
	<g class="st2">
		<path class="st3" d="M287.7,341h-2.5v-13.3h2.5V341z"/>
		<path class="st3" d="M297.9,335.6v5.4h-2.3v-4.9c0-1.4-0.7-2-1.8-2c-1.2,0-2.1,0.7-2.1,2.6v4.3h-2.3v-8.8h2.3v1.3h0
			c0.6-1,1.6-1.6,2.9-1.6C296.5,331.9,297.9,333,297.9,335.6z"/>
		<path class="st3" d="M302.1,331.3v0.9h1.8v2h-1.8v6.8h-2.3v-6.8h-1.5v-2h1.5v-0.9c0-2.5,1.3-3.8,3.8-3.8h0.5v2.2h-0.3
			C302.7,329.7,302.1,330.1,302.1,331.3z"/>
		<path class="st3" d="M313.5,336.6c0,2.8-2.1,4.7-4.9,4.7c-2.8,0-4.9-1.9-4.9-4.7c0-2.8,2.1-4.7,4.9-4.7
			C311.4,331.9,313.5,333.9,313.5,336.6z M306.2,336.6c0,1.5,1,2.5,2.5,2.5s2.5-1,2.5-2.5c0-1.5-1-2.5-2.5-2.5
			S306.2,335.1,306.2,336.6z"/>
		<path class="st3" d="M319.8,334.5h-0.3c-1.9,0-2.8,0.8-2.8,2.9v3.6h-2.3v-8.8h2.3v1.9h0c0.5-1.4,1.5-2.1,2.9-2.1h0.1V334.5z"/>
		<path class="st3" d="M320.4,332.2h2.3v1.3h0c0.5-1.1,1.5-1.6,2.7-1.6c1.3,0,2.2,0.6,2.7,1.7h0c0.6-1.2,1.7-1.7,2.9-1.7
			c1.7,0,3.1,1.1,3.1,3.5v5.6h-2.3v-5.1c0-1.2-0.5-1.8-1.6-1.8c-1,0-1.8,0.6-1.8,2.4v4.5h-2.3v-5.1c0-1.2-0.5-1.8-1.6-1.8
			c-1,0-1.8,0.6-1.8,2.5v4.4h-2.3V332.2z"/>
		<path class="st3" d="M335,336.6c0-3,1.9-4.7,4.2-4.7c1.4,0,2.4,0.6,2.9,1.5h0v-1.2h2.3v8.8h-2.3v-1.2h0c-0.6,0.9-1.5,1.5-2.9,1.5
			C336.9,341.3,335,339.6,335,336.6z M342.2,336.6c0-1.5-1-2.5-2.4-2.5s-2.4,1-2.4,2.5c0,1.5,1,2.5,2.4,2.5S342.2,338.1,342.2,336.6
			z"/>
		<path class="st3" d="M349.1,334.2v3.7c0,0.7,0.2,1,0.9,1h0.4v2.2h-1c-1.7,0-2.6-0.8-2.6-2.6v-4.2h-1.6v-2h1.6v-3.5h2.3v3.5h1.8v2
			H349.1z"/>
		<path class="st3" d="M354.3,330.4h-2.7v-2.6h2.7V330.4z M351.8,332.2h2.3v8.8h-2.3V332.2z"/>
		<path class="st3" d="M364.9,336.6c0,2.8-2.1,4.7-4.9,4.7s-4.9-1.9-4.9-4.7c0-2.8,2.1-4.7,4.9-4.7S364.9,333.9,364.9,336.6z
			 M357.5,336.6c0,1.5,1,2.5,2.5,2.5s2.5-1,2.5-2.5c0-1.5-1-2.5-2.5-2.5S357.5,335.1,357.5,336.6z"/>
		<path class="st3" d="M374.3,335.6v5.4H372v-4.9c0-1.4-0.7-2-1.8-2c-1.2,0-2.1,0.7-2.1,2.6v4.3h-2.3v-8.8h2.3v1.3h0
			c0.6-1,1.6-1.6,2.9-1.6C372.9,331.9,374.3,333,374.3,335.6z"/>
		<path class="st3" d="M395.8,341h-2.6l-2-8.6h0l-2.7,6.7h-1.8l-2.7-6.7h0l-2,8.6h-2.5l3.3-13.3h1.9l3,7.6h0l3-7.6h1.9L395.8,341z"
			/>
		<path class="st3" d="M395.7,336.6c0-3,1.9-4.7,4.2-4.7c1.4,0,2.4,0.6,2.9,1.5h0v-1.2h2.3v8.8h-2.3v-1.2h0
			c-0.6,0.9-1.5,1.5-2.9,1.5C397.6,341.3,395.7,339.6,395.7,336.6z M402.9,336.6c0-1.5-1-2.5-2.4-2.5s-2.4,1-2.4,2.5
			c0,1.5,1,2.5,2.4,2.5S402.9,338.1,402.9,336.6z"/>
		<path class="st3" d="M415.2,335.6v5.4h-2.3v-4.9c0-1.4-0.7-2-1.8-2c-1.2,0-2.1,0.7-2.1,2.6v4.3h-2.3v-8.8h2.3v1.3h0
			c0.6-1,1.6-1.6,2.9-1.6C413.7,331.9,415.2,333,415.2,335.6z"/>
		<path class="st3" d="M416,336.6c0-3,1.9-4.7,4.2-4.7c1.4,0,2.4,0.6,2.9,1.5h0v-1.2h2.3v8.8h-2.3v-1.2h0c-0.6,0.9-1.5,1.5-2.9,1.5
			C417.9,341.3,416,339.6,416,336.6z M423.2,336.6c0-1.5-1-2.5-2.4-2.5s-2.4,1-2.4,2.5c0,1.5,1,2.5,2.4,2.5S423.2,338.1,423.2,336.6
			z"/>
		<path class="st3" d="M428,344.7l0.4-2.2c1.3,0.3,2.3,0.4,3.1,0.4c1.6,0,2.2-0.6,2.2-2.3v-0.8h0c-0.6,0.8-1.5,1.5-2.9,1.5
			c-2.3,0-4.2-1.7-4.2-4.6c0-3,1.9-4.7,4.2-4.7c1.4,0,2.4,0.6,2.9,1.5h0v-1.2h2.3v8.8c0,3.1-1.8,4.1-4.4,4.1
			C430.6,345.1,429.3,344.9,428,344.7z M433.6,336.6c0-1.5-1-2.5-2.4-2.5s-2.4,1-2.4,2.5c0,1.5,1,2.5,2.4,2.5
			S433.6,338.1,433.6,336.6z"/>
		<path class="st3" d="M445.7,336.6v0.5h-6.6c0.1,1.3,1.1,2.1,2.5,2.1c1.3,0,2.1-0.7,2.6-1.2l1.2,1.7c-0.8,0.7-2,1.6-3.8,1.6
			c-2.9,0-4.7-1.9-4.7-4.7c0-2.8,1.8-4.7,4.6-4.7C444.1,331.9,445.7,333.6,445.7,336.6z M439.2,335.6h4.1c-0.1-1.1-0.9-1.8-2-1.8
			C440.2,333.8,439.4,334.4,439.2,335.6z"/>
		<path class="st3" d="M452,334.5h-0.3c-1.9,0-2.8,0.8-2.8,2.9v3.6h-2.3v-8.8h2.3v1.9h0c0.5-1.4,1.5-2.1,2.9-2.1h0.1V334.5z"/>
	</g>
	<path id="icon_keim_color" class="st3" d="M265.1,340.1c-1,0-2,0.3-2.8,0.9l-5.8-5.2l8-4.6c2.3-1.4,3.1-4.3,1.8-6.7
		c-0.4-0.7-1-1.4-1.8-1.8l-9.8-5.6l5.3-6.1c1.8,0.9,4,0.2,4.9-1.7c0.9-1.8,0.2-4-1.7-4.9c-1.8-0.9-4-0.2-4.9,1.7
		c-0.6,1.2-0.5,2.6,0.2,3.7l-5.6,6.4l-15.6-9c-2.3-1.3-5.3-0.5-6.7,1.8c-0.4,0.7-0.6,1.6-0.7,2.4v21.4l2.9-1.8v-19.5
		c0-1.1,0.9-2,2-2c0.4,0,0.7,0.1,1,0.3l15.1,8.7l-2,2.2c-3.6-2.4-8.4-1.5-10.8,2.1c-1.5,2.2-1.8,5.1-0.7,7.5l-10.7,6.9
		c-1.9-1.7-4.7-1.5-6.4,0.3c-1.7,1.9-1.5,4.7,0.3,6.4c1.9,1.7,4.7,1.5,6.4-0.3c1.1-1.2,1.4-2.9,0.9-4.4l1.8-1.2v4.8
		c0,2.7,2.2,4.9,4.9,4.9c0.9,0,1.7-0.2,2.5-0.7l15.2-8.8l-2.2-2l-14.3,8.3c-1,0.6-2.2,0.2-2.8-0.7c-0.2-0.3-0.3-0.7-0.3-1V336l6-3.8
		c2.8,3.2,7.6,3.5,10.8,0.8l11,9.8c-1.3,2.4-0.4,5.5,2.1,6.8s5.5,0.4,6.8-2.1s0.4-5.5-2.1-6.8C266.7,340.3,265.9,340.1,265.1,340.1z
		 M251.2,331.2c1.9-2.9,1.6-6.8-0.7-9.4l2.2-2.5l10.3,5.9c1,0.6,1.3,1.8,0.7,2.8c-0.2,0.3-0.4,0.6-0.7,0.7l-8.8,5.1L251.2,331.2z"/>
</g>
</svg>
