<svg version="1.1" id="Layer_1" xmlns="http://www.w3.org/2000/svg" x="0" y="0" viewBox="0 0 239.7 52.3" xml:space="preserve"><style>.st0{enable-background:new}.st1{fill:#fff}</style><g id="グループ_1" transform="translate(-186 -167)"><g class="st0"><path class="st1" d="m263.1 190.1-5.8-6.5v6.5h-2.4v-13.3h2.4v5.9l5-5.9h3.3L260 183l6.6 7.1h-3.5z"/><path class="st1" d="m274.5 181.3-5.6 12.6h-2.4l2.1-4.6-3.8-8h2.7l2.2 5.3 2.3-5.3h2.5zM283.8 185.7c0 2.8-2.1 4.7-4.9 4.7s-4.9-1.9-4.9-4.7c0-2.8 2.1-4.7 4.9-4.7s4.9 2 4.9 4.7zm-7.4 0c0 1.5 1 2.5 2.5 2.5s2.5-1 2.5-2.5-1-2.5-2.5-2.5-2.5 1-2.5 2.5zM284.2 185.7c0-2.8 2-4.7 4.8-4.7 1.2 0 2.2.3 3.1.9l-1 1.9c-.6-.4-1.2-.6-2-.6-1.4 0-2.5 1-2.5 2.5s1 2.5 2.5 2.5c.8 0 1.5-.2 2-.6l1 1.9c-.9.6-1.9.9-3.1.9-2.8 0-4.8-1.9-4.8-4.7z"/><path class="st1" d="M300.6 185.7v.5H294c.1 1.3 1.1 2.1 2.5 2.1 1.3 0 2.1-.7 2.6-1.2l1.2 1.7c-.8.7-2 1.6-3.8 1.6-2.9 0-4.7-1.9-4.7-4.7 0-2.8 1.8-4.7 4.6-4.7 2.6 0 4.2 1.7 4.2 4.7zm-6.5-1h4.1c-.1-1.1-.9-1.8-2-1.8s-1.9.6-2.1 1.8zM306.9 183.6h-.3c-1.9 0-2.8.8-2.8 2.9v3.6h-2.3v-8.8h2.3v1.9c.5-1.4 1.5-2.1 2.9-2.1h.1l.1 2.5z"/><path class="st1" d="M306.6 185.7c0-3 1.9-4.7 4.2-4.7 1.4 0 2.4.6 2.9 1.5v-1.2h2.3v8.8h-2.3v-1.2c-.6.9-1.5 1.5-2.9 1.5-2.3 0-4.2-1.7-4.2-4.7zm7.2 0c0-1.5-1-2.5-2.4-2.5s-2.4 1-2.4 2.5 1 2.5 2.4 2.5 2.4-1 2.4-2.5zM330.5 187.8v2.3h-8v-13.3h7.9v2.3h-5.5v2.7h5v2.2h-5v3.8h5.6zM340.2 184.7v5.4h-2.3v-4.9c0-1.4-.7-2-1.8-2-1.2 0-2.1.7-2.1 2.6v4.3h-2.3v-8.8h2.3v1.3c.6-1 1.6-1.6 2.9-1.6 1.9 0 3.3 1.1 3.3 3.7zM344.3 183.3v3.7c0 .7.2 1 .9 1h.4v2.2h-1c-1.7 0-2.6-.8-2.6-2.6v-4.2h-1.6v-2h1.6v-3.5h2.3v3.5h1.8v2h-1.8v-.1zM354.9 185.7v.5h-6.6c.1 1.3 1.1 2.1 2.5 2.1 1.3 0 2.1-.7 2.6-1.2l1.2 1.7c-.8.7-2 1.6-3.8 1.6-2.9 0-4.7-1.9-4.7-4.7 0-2.8 1.8-4.7 4.6-4.7 2.6 0 4.2 1.7 4.2 4.7zm-6.5-1h4.1c-.1-1.1-.9-1.8-2-1.8s-1.9.6-2.1 1.8zM361.2 183.6h-.3c-1.9 0-2.8.8-2.8 2.9v3.6h-2.3v-8.8h2.3v1.9c.5-1.4 1.5-2.1 2.9-2.1h.1l.1 2.5zM361.8 181.3h2.3v1.2c.6-.9 1.5-1.5 2.9-1.5 2.3 0 4.2 1.7 4.2 4.7s-1.9 4.7-4.2 4.7c-1.4 0-2.4-.6-2.9-1.5v5h-2.3v-12.6zm7.1 4.4c0-1.5-1-2.5-2.4-2.5s-2.4 1-2.4 2.5 1 2.5 2.4 2.5 2.4-1 2.4-2.5zM377.7 183.6h-.3c-1.9 0-2.8.8-2.8 2.9v3.6h-2.3v-8.8h2.3v1.9c.5-1.4 1.5-2.1 2.9-2.1h.1l.1 2.5zM380.9 179.5h-2.7v-2.6h2.7v2.6zm-2.5 1.8h2.3v8.8h-2.3v-8.8zM381.2 189.5l.9-2c.9.5 1.9.9 2.9.9.7 0 1.1-.2 1.1-.6 0-.3-.2-.5-.8-.8l-1.6-.7c-1.4-.6-2-1.5-2-2.6 0-1.7 1.2-2.7 3.4-2.7 1 0 2.1.2 3.1.6l-.8 2c-.8-.3-1.7-.6-2.5-.6-.7 0-.9.2-.9.5s.2.5.8.8l1.6.7c1.2.5 1.9 1.3 1.9 2.6 0 1.9-1.4 2.8-3.6 2.8-1 0-2.4-.3-3.5-.9zM397.6 185.7v.5H391c.1 1.3 1.1 2.1 2.5 2.1 1.3 0 2.1-.7 2.6-1.2l1.2 1.7c-.8.7-2 1.6-3.8 1.6-2.9 0-4.7-1.9-4.7-4.7 0-2.8 1.8-4.7 4.6-4.7 2.6 0 4.2 1.7 4.2 4.7zm-6.5-1h4.1c-.1-1.1-.9-1.8-2-1.8-1 0-1.9.6-2.1 1.8z"/></g><g class="st0"><path class="st1" d="M257.4 208.1h-2.5v-13.3h2.5v13.3zM267.6 202.7v5.4h-2.3v-4.9c0-1.4-.7-2-1.8-2-1.2 0-2.1.7-2.1 2.6v4.3h-2.3v-8.8h2.3v1.3c.6-1 1.6-1.6 2.9-1.6 1.9 0 3.3 1.1 3.3 3.7zM271.8 198.4v.9h1.8v2h-1.8v6.8h-2.3v-6.8H268v-2h1.5v-.9c0-2.5 1.3-3.8 3.8-3.8h.5v2.2h-.3c-1.1 0-1.7.4-1.7 1.6zM283.2 203.7c0 2.8-2.1 4.7-4.9 4.7s-4.9-1.9-4.9-4.7c0-2.8 2.1-4.7 4.9-4.7s4.9 2 4.9 4.7zm-7.3 0c0 1.5 1 2.5 2.5 2.5s2.5-1 2.5-2.5-1-2.5-2.5-2.5-2.5 1-2.5 2.5zM289.5 201.6h-.3c-1.9 0-2.8.8-2.8 2.9v3.6h-2.3v-8.8h2.3v1.9c.5-1.4 1.5-2.1 2.9-2.1h.1l.1 2.5zM290.1 199.3h2.3v1.3c.5-1.1 1.5-1.6 2.7-1.6 1.3 0 2.2.6 2.7 1.7.6-1.2 1.7-1.7 2.9-1.7 1.7 0 3.1 1.1 3.1 3.5v5.6h-2.3V203c0-1.2-.5-1.8-1.6-1.8-1 0-1.8.6-1.8 2.4v4.5h-2.3V203c0-1.2-.5-1.8-1.6-1.8-1 0-1.8.6-1.8 2.5v4.4h-2.3v-8.8zM304.7 203.7c0-3 1.9-4.7 4.2-4.7 1.4 0 2.4.6 2.9 1.5v-1.2h2.3v8.8h-2.3v-1.2c-.6.9-1.5 1.5-2.9 1.5-2.3 0-4.2-1.7-4.2-4.7zm7.2 0c0-1.5-1-2.5-2.4-2.5s-2.4 1-2.4 2.5 1 2.5 2.4 2.5 2.4-1 2.4-2.5zM318.8 201.3v3.7c0 .7.2 1 .9 1h.4v2.2h-1c-1.7 0-2.6-.8-2.6-2.6v-4.2h-1.6v-2h1.6v-3.5h2.3v3.5h1.8v2h-1.8v-.1zM324 197.5h-2.7v-2.6h2.7v2.6zm-2.5 1.8h2.3v8.8h-2.3v-8.8zM334.6 203.7c0 2.8-2.1 4.7-4.9 4.7s-4.9-1.9-4.9-4.7c0-2.8 2.1-4.7 4.9-4.7s4.9 2 4.9 4.7zm-7.4 0c0 1.5 1 2.5 2.5 2.5s2.5-1 2.5-2.5-1-2.5-2.5-2.5-2.5 1-2.5 2.5zM344 202.7v5.4h-2.3v-4.9c0-1.4-.7-2-1.8-2-1.2 0-2.1.7-2.1 2.6v4.3h-2.3v-8.8h2.3v1.3c.6-1 1.6-1.6 2.9-1.6 1.9 0 3.3 1.1 3.3 3.7zM365.5 208.1h-2.6l-2-8.6-2.7 6.7h-1.8l-2.7-6.7-2 8.6h-2.5l3.3-13.3h1.9l3 7.6 3-7.6h1.9l3.2 13.3zM365.4 203.7c0-3 1.9-4.7 4.2-4.7 1.4 0 2.4.6 2.9 1.5v-1.2h2.3v8.8h-2.3v-1.2c-.6.9-1.5 1.5-2.9 1.5-2.3 0-4.2-1.7-4.2-4.7zm7.2 0c0-1.5-1-2.5-2.4-2.5s-2.4 1-2.4 2.5 1 2.5 2.4 2.5 2.4-1 2.4-2.5zM384.9 202.7v5.4h-2.3v-4.9c0-1.4-.7-2-1.8-2-1.2 0-2.1.7-2.1 2.6v4.3h-2.3v-8.8h2.3v1.3c.6-1 1.6-1.6 2.9-1.6 1.8 0 3.3 1.1 3.3 3.7zM385.7 203.7c0-3 1.9-4.7 4.2-4.7 1.4 0 2.4.6 2.9 1.5v-1.2h2.3v8.8h-2.3v-1.2c-.6.9-1.5 1.5-2.9 1.5-2.3 0-4.2-1.7-4.2-4.7zm7.2 0c0-1.5-1-2.5-2.4-2.5s-2.4 1-2.4 2.5 1 2.5 2.4 2.5 2.4-1 2.4-2.5zM397.7 211.8l.4-2.2c1.3.3 2.3.4 3.1.4 1.6 0 2.2-.6 2.2-2.3v-.8c-.6.8-1.5 1.5-2.9 1.5-2.3 0-4.2-1.7-4.2-4.6 0-3 1.9-4.7 4.2-4.7 1.4 0 2.4.6 2.9 1.5v-1.2h2.3v8.8c0 3.1-1.8 4.1-4.4 4.1-1-.1-2.3-.3-3.6-.5zm5.6-8.1c0-1.5-1-2.5-2.4-2.5s-2.4 1-2.4 2.5 1 2.5 2.4 2.5 2.4-1 2.4-2.5zM415.4 203.7v.5h-6.6c.1 1.3 1.1 2.1 2.5 2.1 1.3 0 2.1-.7 2.6-1.2l1.2 1.7c-.8.7-2 1.6-3.8 1.6-2.9 0-4.7-1.9-4.7-4.7 0-2.8 1.8-4.7 4.6-4.7 2.6 0 4.2 1.7 4.2 4.7zm-6.5-1h4.1c-.1-1.1-.9-1.8-2-1.8s-1.9.6-2.1 1.8zM421.7 201.6h-.3c-1.9 0-2.8.8-2.8 2.9v3.6h-2.3v-8.8h2.3v1.9c.5-1.4 1.5-2.1 2.9-2.1h.1l.1 2.5z"/></g><path id="icon_keim_color" class="st1" d="M234.8 207.2c-1 0-2 .3-2.8.9l-5.8-5.2 8-4.6c2.3-1.4 3.1-4.3 1.8-6.7-.4-.7-1-1.4-1.8-1.8l-9.8-5.6 5.3-6.1c1.8.9 4 .2 4.9-1.7.9-1.8.2-4-1.7-4.9-1.8-.9-4-.2-4.9 1.7-.6 1.2-.5 2.6.2 3.7l-5.6 6.4-15.6-9c-2.3-1.3-5.3-.5-6.7 1.8-.4.7-.6 1.6-.7 2.4v21.4l2.9-1.8v-19.5c0-1.1.9-2 2-2 .4 0 .7.1 1 .3l15.1 8.7-2 2.2c-3.6-2.4-8.4-1.5-10.8 2.1-1.5 2.2-1.8 5.1-.7 7.5l-10.7 6.9c-1.9-1.7-4.7-1.5-6.4.3-1.7 1.9-1.5 4.7.3 6.4 1.9 1.7 4.7 1.5 6.4-.3 1.1-1.2 1.4-2.9.9-4.4l1.8-1.2v4.8c0 2.7 2.2 4.9 4.9 4.9.9 0 1.7-.2 2.5-.7l15.2-8.8-2.2-2-14.3 8.3c-1 .6-2.2.2-2.8-.7-.2-.3-.3-.7-.3-1v-6.8l6-3.8c2.8 3.2 7.6 3.5 10.8.8l11 9.8c-1.3 2.4-.4 5.5 2.1 6.8s5.5.4 6.8-2.1.4-5.5-2.1-6.8c-.6-.4-1.4-.6-2.2-.6zm-13.9-8.9c1.9-2.9 1.6-6.8-.7-9.4l2.2-2.5 10.3 5.9c1 .6 1.3 1.8.7 2.8-.2.3-.4.6-.7.7l-8.8 5.1-3-2.6z"/></g></svg>