<?xml version="1.0" encoding="utf-8"?>
<!-- Generator: Adobe Illustrator 26.3.1, SVG Export Plug-In . SVG Version: 6.00 Build 0)  -->
<svg version="1.1" id="Layer_1" xmlns="http://www.w3.org/2000/svg" xmlns:xlink="http://www.w3.org/1999/xlink" x="0px" y="0px"
	 viewBox="-1 -1 240 48" style="enable-background:new 0 0 233.7 46;" xml:space="preserve">
<style type="text/css">
	.st0{enable-background:new    ;}
	.st1{fill:#282828;}
	.st2{fill:#00A5C3;}
</style>
<g id="グループ_2" transform="translate(-260.304 -453.077)">
	<g class="st0">
		<path class="st1" d="M334.4,472l-5.8-6.5v6.5h-2.4v-13.3h2.4v5.9l5-5.9h3.3l-5.6,6.2l6.6,7.1H334.4z"/>
		<path class="st1" d="M345.8,463.2l-5.6,12.6h-2.4l2.1-4.6l-3.8-8h2.7l2.2,5.3l2.3-5.3H345.8z"/>
		<path class="st1" d="M355.1,467.6c0,2.8-2.1,4.7-4.9,4.7c-2.8,0-4.9-1.9-4.9-4.7c0-2.8,2.1-4.7,4.9-4.7
			C353,462.9,355.1,464.9,355.1,467.6z M347.7,467.6c0,1.5,1,2.5,2.5,2.5s2.5-1,2.5-2.5c0-1.5-1-2.5-2.5-2.5
			S347.7,466.1,347.7,467.6z"/>
		<path class="st1" d="M355.5,467.6c0-2.8,2-4.7,4.8-4.7c1.2,0,2.2,0.3,3.1,0.9l-1,1.9c-0.6-0.4-1.2-0.6-2-0.6c-1.4,0-2.5,1-2.5,2.5
			c0,1.5,1,2.5,2.5,2.5c0.8,0,1.5-0.2,2-0.6l1,1.9c-0.9,0.6-1.9,0.9-3.1,0.9C357.5,472.3,355.5,470.4,355.5,467.6z"/>
		<path class="st1" d="M371.9,467.6v0.5h-6.6c0.1,1.3,1.1,2.1,2.5,2.1c1.3,0,2.1-0.7,2.6-1.2l1.2,1.7c-0.8,0.7-2,1.6-3.8,1.6
			c-2.9,0-4.7-1.9-4.7-4.7c0-2.8,1.8-4.7,4.6-4.7C370.3,462.9,371.9,464.6,371.9,467.6z M365.4,466.6h4.1c-0.1-1.1-0.9-1.8-2-1.8
			C366.4,464.8,365.6,465.4,365.4,466.6z"/>
		<path class="st1" d="M378.2,465.5h-0.3c-1.9,0-2.8,0.8-2.8,2.9v3.6h-2.3v-8.8h2.3v1.9h0c0.5-1.4,1.5-2.1,2.9-2.1h0.1V465.5z"/>
		<path class="st1" d="M377.9,467.6c0-3,1.9-4.7,4.2-4.7c1.4,0,2.4,0.6,2.9,1.5h0v-1.2h2.3v8.8h-2.3v-1.2h0
			c-0.6,0.9-1.5,1.5-2.9,1.5C379.8,472.3,377.9,470.6,377.9,467.6z M385.1,467.6c0-1.5-1-2.5-2.4-2.5c-1.4,0-2.4,1-2.4,2.5
			c0,1.5,1,2.5,2.4,2.5C384.1,470.1,385.1,469.1,385.1,467.6z"/>
		<path class="st1" d="M401.8,469.7v2.3h-8v-13.3h7.9v2.3h-5.5v2.7h5v2.2h-5v3.8H401.8z"/>
		<path class="st1" d="M411.5,466.6v5.4h-2.3v-4.9c0-1.4-0.7-2-1.8-2c-1.2,0-2.1,0.7-2.1,2.6v4.3H403v-8.8h2.3v1.3h0
			c0.6-1,1.6-1.6,2.9-1.6C410.1,462.9,411.5,464,411.5,466.6z"/>
		<path class="st1" d="M415.6,465.2v3.7c0,0.7,0.2,1,0.9,1h0.4v2.2h-1c-1.7,0-2.6-0.8-2.6-2.6v-4.2h-1.6v-2h1.6v-3.5h2.3v3.5h1.8v2
			H415.6z"/>
		<path class="st1" d="M426.2,467.6v0.5h-6.6c0.1,1.3,1.1,2.1,2.5,2.1c1.3,0,2.1-0.7,2.6-1.2l1.2,1.7c-0.8,0.7-2,1.6-3.8,1.6
			c-2.9,0-4.7-1.9-4.7-4.7c0-2.8,1.8-4.7,4.6-4.7C424.6,462.9,426.2,464.6,426.2,467.6z M419.7,466.6h4.1c-0.1-1.1-0.9-1.8-2-1.8
			C420.7,464.8,419.9,465.4,419.7,466.6z"/>
		<path class="st1" d="M432.5,465.5h-0.3c-1.9,0-2.8,0.8-2.8,2.9v3.6h-2.3v-8.8h2.3v1.9h0c0.5-1.4,1.5-2.1,2.9-2.1h0.1V465.5z"/>
		<path class="st1" d="M433.1,463.2h2.3v1.2h0c0.6-0.9,1.5-1.5,2.9-1.5c2.3,0,4.2,1.7,4.2,4.7c0,3-1.9,4.7-4.2,4.7
			c-1.4,0-2.4-0.6-2.9-1.5h0v5h-2.3V463.2z M440.2,467.6c0-1.5-1-2.5-2.4-2.5c-1.4,0-2.4,1-2.4,2.5c0,1.5,1,2.5,2.4,2.5
			C439.2,470.1,440.2,469.1,440.2,467.6z"/>
		<path class="st1" d="M449,465.5h-0.3c-1.9,0-2.8,0.8-2.8,2.9v3.6h-2.3v-8.8h2.3v1.9h0c0.5-1.4,1.5-2.1,2.9-2.1h0.1V465.5z"/>
		<path class="st1" d="M452.2,461.4h-2.7v-2.6h2.7V461.4z M449.7,463.2h2.3v8.8h-2.3V463.2z"/>
		<path class="st1" d="M452.5,471.4l0.9-2c0.9,0.5,1.9,0.9,2.9,0.9c0.7,0,1.1-0.2,1.1-0.6c0-0.3-0.2-0.5-0.8-0.8l-1.6-0.7
			c-1.4-0.6-2-1.5-2-2.6c0-1.7,1.2-2.7,3.4-2.7c1,0,2.1,0.2,3.1,0.6l-0.8,2c-0.8-0.3-1.7-0.6-2.5-0.6c-0.7,0-0.9,0.2-0.9,0.5
			c0,0.3,0.2,0.5,0.8,0.8l1.6,0.7c1.2,0.5,1.9,1.3,1.9,2.6c0,1.9-1.4,2.8-3.6,2.8C455,472.3,453.6,472,452.5,471.4z"/>
		<path class="st1" d="M468.9,467.6v0.5h-6.6c0.1,1.3,1.1,2.1,2.5,2.1c1.3,0,2.1-0.7,2.6-1.2l1.2,1.7c-0.8,0.7-2,1.6-3.8,1.6
			c-2.9,0-4.7-1.9-4.7-4.7c0-2.8,1.8-4.7,4.6-4.7C467.3,462.9,468.9,464.6,468.9,467.6z M462.4,466.6h4.1c-0.1-1.1-0.9-1.8-2-1.8
			C463.5,464.8,462.6,465.4,462.4,466.6z"/>
	</g>
	<g class="st0">
		<path class="st1" d="M328.7,490h-2.5v-13.3h2.5V490z"/>
		<path class="st1" d="M338.9,484.6v5.4h-2.3v-4.9c0-1.4-0.7-2-1.8-2c-1.2,0-2.1,0.7-2.1,2.6v4.3h-2.3v-8.8h2.3v1.3h0
			c0.6-1,1.6-1.6,2.9-1.6C337.5,480.9,338.9,482,338.9,484.6z"/>
		<path class="st1" d="M343.1,480.3v0.9h1.8v2h-1.8v6.8h-2.3v-6.8h-1.5v-2h1.5v-0.9c0-2.5,1.3-3.8,3.8-3.8h0.5v2.2h-0.3
			C343.7,478.7,343.1,479.1,343.1,480.3z"/>
		<path class="st1" d="M354.5,485.6c0,2.8-2.1,4.7-4.9,4.7c-2.8,0-4.9-1.9-4.9-4.7c0-2.8,2.1-4.7,4.9-4.7
			C352.4,480.9,354.5,482.9,354.5,485.6z M347.2,485.6c0,1.5,1,2.5,2.5,2.5s2.5-1,2.5-2.5c0-1.5-1-2.5-2.5-2.5
			S347.2,484.1,347.2,485.6z"/>
		<path class="st1" d="M360.8,483.5h-0.3c-1.9,0-2.8,0.8-2.8,2.9v3.6h-2.3v-8.8h2.3v1.9h0c0.5-1.4,1.5-2.1,2.9-2.1h0.1V483.5z"/>
		<path class="st1" d="M361.4,481.2h2.3v1.3h0c0.5-1.1,1.5-1.6,2.7-1.6c1.3,0,2.2,0.6,2.7,1.7h0c0.6-1.2,1.7-1.7,2.9-1.7
			c1.7,0,3.1,1.1,3.1,3.5v5.6h-2.3v-5.1c0-1.2-0.5-1.8-1.6-1.8c-1,0-1.8,0.6-1.8,2.4v4.5h-2.3v-5.1c0-1.2-0.5-1.8-1.6-1.8
			c-1,0-1.8,0.6-1.8,2.5v4.4h-2.3V481.2z"/>
		<path class="st1" d="M376,485.6c0-3,1.9-4.7,4.2-4.7c1.4,0,2.4,0.6,2.9,1.5h0v-1.2h2.3v8.8h-2.3v-1.2h0c-0.6,0.9-1.5,1.5-2.9,1.5
			C377.9,490.3,376,488.6,376,485.6z M383.2,485.6c0-1.5-1-2.5-2.4-2.5c-1.4,0-2.4,1-2.4,2.5c0,1.5,1,2.5,2.4,2.5
			C382.2,488.1,383.2,487.1,383.2,485.6z"/>
		<path class="st1" d="M390.1,483.2v3.7c0,0.7,0.2,1,0.9,1h0.4v2.2h-1c-1.7,0-2.6-0.8-2.6-2.6v-4.2h-1.6v-2h1.6v-3.5h2.3v3.5h1.8v2
			H390.1z"/>
		<path class="st1" d="M395.3,479.4h-2.7v-2.6h2.7V479.4z M392.8,481.2h2.3v8.8h-2.3V481.2z"/>
		<path class="st1" d="M405.9,485.6c0,2.8-2.1,4.7-4.9,4.7c-2.8,0-4.9-1.9-4.9-4.7c0-2.8,2.1-4.7,4.9-4.7
			C403.8,480.9,405.9,482.9,405.9,485.6z M398.5,485.6c0,1.5,1,2.5,2.5,2.5s2.5-1,2.5-2.5c0-1.5-1-2.5-2.5-2.5
			S398.5,484.1,398.5,485.6z"/>
		<path class="st1" d="M415.3,484.6v5.4H413v-4.9c0-1.4-0.7-2-1.8-2c-1.2,0-2.1,0.7-2.1,2.6v4.3h-2.3v-8.8h2.3v1.3h0
			c0.6-1,1.6-1.6,2.9-1.6C413.9,480.9,415.3,482,415.3,484.6z"/>
		<path class="st1" d="M436.8,490h-2.6l-2-8.6h0l-2.7,6.7h-1.8l-2.7-6.7h0l-2,8.6h-2.5l3.3-13.3h1.9l3,7.6h0l3-7.6h1.9L436.8,490z"
			/>
		<path class="st1" d="M436.7,485.6c0-3,1.9-4.7,4.2-4.7c1.4,0,2.4,0.6,2.9,1.5h0v-1.2h2.3v8.8h-2.3v-1.2h0
			c-0.6,0.9-1.5,1.5-2.9,1.5C438.6,490.3,436.7,488.6,436.7,485.6z M443.9,485.6c0-1.5-1-2.5-2.4-2.5c-1.4,0-2.4,1-2.4,2.5
			c0,1.5,1,2.5,2.4,2.5C442.9,488.1,443.9,487.1,443.9,485.6z"/>
		<path class="st1" d="M456.2,484.6v5.4h-2.3v-4.9c0-1.4-0.7-2-1.8-2c-1.2,0-2.1,0.7-2.1,2.6v4.3h-2.3v-8.8h2.3v1.3h0
			c0.6-1,1.6-1.6,2.9-1.6C454.7,480.9,456.2,482,456.2,484.6z"/>
		<path class="st1" d="M457,485.6c0-3,1.9-4.7,4.2-4.7c1.4,0,2.4,0.6,2.9,1.5h0v-1.2h2.3v8.8h-2.3v-1.2h0c-0.6,0.9-1.5,1.5-2.9,1.5
			C458.9,490.3,457,488.6,457,485.6z M464.2,485.6c0-1.5-1-2.5-2.4-2.5c-1.4,0-2.4,1-2.4,2.5c0,1.5,1,2.5,2.4,2.5
			C463.2,488.1,464.2,487.1,464.2,485.6z"/>
		<path class="st1" d="M469,493.7l0.4-2.2c1.3,0.3,2.3,0.4,3.1,0.4c1.6,0,2.2-0.6,2.2-2.3v-0.8h0c-0.6,0.8-1.5,1.5-2.9,1.5
			c-2.3,0-4.2-1.7-4.2-4.6c0-3,1.9-4.7,4.2-4.7c1.4,0,2.4,0.6,2.9,1.5h0v-1.2h2.3v8.8c0,3.1-1.8,4.1-4.4,4.1
			C471.6,494.1,470.3,493.9,469,493.7z M474.6,485.6c0-1.5-1-2.5-2.4-2.5c-1.4,0-2.4,1-2.4,2.5c0,1.5,1,2.5,2.4,2.5
			C473.7,488.1,474.6,487.1,474.6,485.6z"/>
		<path class="st1" d="M486.7,485.6v0.5h-6.6c0.1,1.3,1.1,2.1,2.5,2.1c1.3,0,2.1-0.7,2.6-1.2l1.2,1.7c-0.8,0.7-2,1.6-3.8,1.6
			c-2.9,0-4.7-1.9-4.7-4.7c0-2.8,1.8-4.7,4.6-4.7C485.1,480.9,486.7,482.6,486.7,485.6z M480.2,484.6h4.1c-0.1-1.1-0.9-1.8-2-1.8
			C481.2,482.8,480.4,483.4,480.2,484.6z"/>
		<path class="st1" d="M493,483.5h-0.3c-1.9,0-2.8,0.8-2.8,2.9v3.6h-2.3v-8.8h2.3v1.9h0c0.5-1.4,1.5-2.1,2.9-2.1h0.1V483.5z"/>
	</g>
	<path id="icon_keim_color" class="st2" d="M306.1,489.1c-1,0-2,0.3-2.8,0.9l-5.8-5.2l8-4.6c2.3-1.4,3.1-4.3,1.8-6.7
		c-0.4-0.7-1-1.4-1.8-1.8l-9.8-5.6l5.3-6.1c1.8,0.9,4,0.2,4.9-1.7c0.9-1.8,0.2-4-1.7-4.9c-1.8-0.9-4-0.2-4.9,1.7
		c-0.6,1.2-0.5,2.6,0.2,3.7l-5.6,6.4l-15.6-9c-2.3-1.3-5.3-0.5-6.7,1.8c-0.4,0.7-0.6,1.6-0.7,2.4v21.4l2.9-1.8v-19.5
		c0-1.1,0.9-2,2-2c0.4,0,0.7,0.1,1,0.3l15.1,8.7l-2,2.2c-3.6-2.4-8.4-1.5-10.8,2.1c-1.5,2.2-1.8,5.1-0.7,7.5l-10.7,6.9
		c-1.9-1.7-4.7-1.5-6.4,0.3c-1.7,1.9-1.5,4.7,0.3,6.4c1.9,1.7,4.7,1.5,6.4-0.3c1.1-1.2,1.4-2.9,0.9-4.4l1.8-1.2v4.8
		c0,2.7,2.2,4.9,4.9,4.9c0.9,0,1.7-0.2,2.5-0.7l15.2-8.8l-2.2-2l-14.3,8.3c-1,0.6-2.2,0.2-2.8-0.7c-0.2-0.3-0.3-0.7-0.3-1V485l6-3.8
		c2.8,3.2,7.6,3.5,10.8,0.8l11,9.8c-1.3,2.4-0.4,5.5,2.1,6.8c2.4,1.3,5.5,0.4,6.8-2.1c1.3-2.4,0.4-5.5-2.1-6.8
		C307.7,489.3,306.9,489.1,306.1,489.1z M292.2,480.2c1.9-2.9,1.6-6.8-0.7-9.4l2.2-2.5l10.3,5.9c1,0.6,1.3,1.8,0.7,2.8
		c-0.2,0.3-0.4,0.6-0.7,0.7l-8.8,5.1L292.2,480.2z"/>
</g>
</svg>
