<svg viewBox="0 0 841.9 595.3" xmlns="http://www.w3.org/2000/svg"><path d="M552.3 267.4c0-2.9 2.3-5.1 5.1-5.1s5.1 2.2 5.1 5.1-2.3 5.1-5.1 5.1-5.1-2.2-5.1-5.1zm.9 0c0 2.5 1.9 4.4 4.2 4.4s4.2-1.9 4.2-4.4-1.9-4.4-4.2-4.4c-2.4 0-4.2 1.9-4.2 4.4zm2.2 3v-6h2.2c1.4 0 2.1.6 2.1 1.7s-.7 1.5-1.6 1.6l1.7 2.6h-1l-1.6-2.6h-1v2.6h-.8v.1zm.9-5.3v1.9h.9c.8 0 1.6 0 1.6-1 0-.8-.7-.9-1.3-.9h-1.2zM513.2 287.6c0 4.3 9 7.7 20 7.7s20-3.5 20-7.7c0-4.3-9-7.7-20-7.7s-20 3.4-20 7.7zm-13.1-.2c0-7 14-12.8 31.2-12.8s31.2 5.7 31.2 12.8c0 7-14 12.8-31.2 12.8-17.2-.1-31.2-5.8-31.2-12.8zM291.9 282.2s39-1.6 39-7.1c0-3.5-16.1-3.2-25.2.1-5.3 1.8-10.7 4.2-13.8 7zm-2.9 4.9c.6 3.2 10.8 6.7 18.1 6.7 35.7 0 47.2-15.9 56-15.9 6 0 9.7 12.6 12.2 12.6 2.7 0 5.8-8.4 12.3-8.4 3.7 0 8.7 8.6 15.9 11.2 2.9 1 3.6 0 4.6 1.2.8 1-.2 3-6.7 3-11.1 0-12-7.9-14.5-7.9-2.8 0-6.7 10.5-12.7 10.5-7.2 0-9.5-13.1-14-13.1-4.1 0-16.5 13.1-52.6 13.1-20.9 0-28.5-7-28.5-12.8 0-5.9 9.1-11.9 22.5-16.4 17-5.6 40.6-4.6 40.6 3.4-.1 9.7-34.9 11.7-53.2 12.8zM445.4 284.8c-7.2-3.1-24-1.9-24 4.2 0 2 3.8 5.1 12.9 3.9 11.8-1.5 19.3-10.9 23.2-10.9 3.2 0 7.7 11.6 21.2 11.6 7.8 0 8.3-1.4 8.3-1.4s-1.9-3.2-2.3-5.2c-.8-4.2 3.4-7.8 5.4-5.9 3.1 3.1 6.5 11.2 6.7 12.3.3 1.3-4.9 6.7-20.5 6.7-8.3 0-15.8-4.7-20.5-8.6-7.8 4.7-14.9 7.4-21.5 8.2-12.3 1.5-23.6-1.8-23.6-9.6 0-8.8 18.4-16.2 36.4-10.9 4.6 1.3 3 7.6-1.7 5.6zm34.7-17c1.9-.9 4.5.7 5.8 3.6 1.3 2.8.9 5.9-1 6.7-1.9.9-4.5-.7-5.8-3.6-1.3-2.8-.9-5.8 1-6.7zM480.9 318.1c-.1 0-.2 0-.3-.1-.1 0-.2 0-.2-.1h-.3c-.7 0-1.5.2-2.2.6s-1.3 1-1.9 1.7v-.9c0-.3-.1-.5-.2-.7s-.2-.5-.3-.7l-2.3.6c.1.2.2.5.2.8.1.3.1.6.2 1s.1.8.1 1.4v11.1h2.3v-9.1c0-.6.1-1.1.2-1.4s.3-.6.7-.9c.7-.7 1.5-1 2.4-1 .2 0 .4 0 .6.1l1-2.4zm14 7.9v-.3c0-.9 0-1.6-.1-2.2s-.1-1.2-.3-1.6c-.1-.5-.3-.9-.5-1.2s-.5-.7-.8-1c-1-1-2.3-1.6-3.9-1.6-1.7 0-3.2.7-4.3 2-.6.7-1.1 1.5-1.3 2.4-.3.8-.4 1.9-.4 3.1 0 2.4.6 4.3 1.7 5.6 1.1 1.4 2.7 2 4.7 2 .9 0 1.8-.2 2.7-.5s1.6-.8 2.2-1.3l-.9-1.5c-1 .9-2.2 1.4-3.5 1.4-.7 0-1.4-.1-2-.4s-1.1-.7-1.6-1.3c-.3-.4-.4-.8-.5-1.4-.1-.5-.1-1.1-.1-1.8v-.4h8.9zm-9-1.7c.1-3 1.2-4.5 3.3-4.5.6 0 1.1.1 1.5.3.5.2.8.5 1.1.9.2.3.4.8.5 1.3s.2 1.2.2 1.9h-6.6v.1zm25.6 8.5c-.2-.4-.3-1-.3-1.7-.1-.7-.1-1.7-.1-3V312l-2.3-.4v8.2c-.4-.6-1-1-1.7-1.3s-1.4-.5-2.2-.5c-.5 0-1 .1-1.4.2s-.9.4-1.3.7c-2 1.4-3 3.6-3 6.7 0 2.3.5 4.1 1.5 5.4s2.5 1.9 4.4 1.9c.9 0 1.6-.1 2.2-.4s1.1-.7 1.7-1.3c0 .2 0 .4.1.5 0 .2.1.3.1.5.1.2.1.3.1.5l2.2.1zm-2.7-3.6c-.1.1-.1.2-.2.3s-.2.2-.3.4c-.1.1-.2.3-.4.3-.5.3-.9.6-1.3.7s-.9.2-1.5.2c-.7 0-1.3-.1-1.7-.4-.5-.3-.9-.7-1.2-1.3-.2-.4-.4-1-.5-1.6s-.1-1.4-.1-2.2c0-1 .1-1.8.2-2.4s.4-1.2.7-1.7c.6-1 1.5-1.5 2.7-1.5.9 0 1.6.1 2.1.4.6.3 1 .6 1.4 1.1v7.7h.1zm11.6 2.1H520.1c-.3 0-.5-.1-.7-.3-.1-.2-.2-.6-.2-1.1v-14.8c0-.6 0-1-.1-1.5 0-.4-.1-.8-.1-1.1-.1-.3-.1-.6-.2-.9l-2.2.4c.1.2.1.5.2.8 0 .3.1.6.1.9 0 .4.1.8.1 1.2v15.3c0 .5.1.9.2 1.3.1.3.3.6.5.8.4.4 1 .6 1.7.6.3 0 .6 0 .7-.1.2 0 .4-.1.7-.3l-.4-1.2zm7.3 1.5V318l-2.3.4v14.4h2.3zm.2-20.1c-.3-.3-.8-.5-1.3-.5s-.9.2-1.3.5c-.3.3-.5.8-.5 1.3s.2.9.5 1.2.8.5 1.3.5.9-.2 1.3-.5c.3-.3.5-.8.5-1.3s-.2-.9-.5-1.2zm16.4 20.1v-11c0-.6-.1-1.2-.3-1.7-.3-.6-.8-1.2-1.4-1.5-.6-.4-1.3-.6-2.1-.6-1.5 0-3.1.7-4.5 2.2 0-.3 0-.6-.1-.8-.1-.3-.1-.5-.2-.7s-.2-.5-.3-.7l-2.2.6c.1.2.2.5.3.8s.1.6.2 1 .1.8.1 1.3v11.1h2.2V322c.3-.3.6-.5.9-.8s.7-.5 1.1-.7.7-.3 1.1-.4.7-.2 1-.2c.7 0 1.2.2 1.6.6.1.1.2.2.2.4.1.1.1.3.2.4 0 .2.1.4.1.6v10.8h2.1v.1zM561 326v-.3c0-.9 0-1.6-.1-2.2s-.1-1.2-.3-1.6c-.1-.5-.3-.9-.5-1.2s-.5-.7-.8-1c-1-1-2.3-1.6-3.9-1.6-1.7 0-3.2.7-4.3 2-.6.7-1.1 1.5-1.3 2.4-.3.8-.4 1.9-.4 3.1 0 2.4.6 4.3 1.7 5.6 1.1 1.4 2.7 2 4.7 2 .9 0 1.8-.2 2.7-.5.8-.3 1.6-.8 2.2-1.3l-.9-1.5c-1 .9-2.2 1.4-3.5 1.4-.7 0-1.4-.1-2-.4s-1.1-.7-1.6-1.3c-.3-.4-.4-.8-.5-1.4-.1-.5-.1-1.1-.1-1.8v-.4h8.9zm-8.9-1.7c.1-3 1.2-4.5 3.3-4.5.6 0 1.1.1 1.5.3.5.2.8.5 1.1.9.2.3.4.8.5 1.3s.2 1.2.2 1.9h-6.6v.1z"/></svg>